<?xml version="1.0" encoding="UTF-8"?>
<svg id="Layer_1" xmlns="http://www.w3.org/2000/svg" version="1.1" viewBox="0 0 512 512">
  <!-- Generator: Adobe Illustrator 29.4.0, SVG Export Plug-In . SVG Version: 2.1.0 Build 152)  -->
  <defs>
    <style>
      .st0 {
        fill: #8d99ae;
      }

      .st1 {
        fill: #2b2d42;
      }

      .st2 {
        fill: #336;
      }
    </style>
  </defs>
  <path class="st2" d="M0,0v512h512V0H0Z"/>
  <path class="st1" d="M64.18,102.64h-3.48c-1.07-.01-4.06-.17-4.21-1.7-.06-.59.02-1.21.02-1.8l-.12-20.78c0-.76-.17-1.49-.2-2.23l-.02-6.62c-.01-.56-.11-1.11-.13-1.67l-.04-3.83c-.02-.4-.11-.8-.12-1.2l-.02-6.03c-.01-.66-.16-1.3-.17-1.94l-.02-6.84c0-.76-.14-1.49-.15-2.24l-.04-7.1c-.3-.06-.65-.02-.95-.02h-11.19c-.34.02-.89.1-1.19-.06-1.78-.99.74-2.81,1.42-3.54l17.56-20.24c.79-.94,1.43-2.12,2.73-2.34.83.01,1.37.35,1.93.95l18.64,21.63c.71.83,1.7,1.59,2.17,2.59-.41,1.32-1.13,1.19-2.26,1.18l-11.71.02c-.07.49-.04,1.01-.04,1.51l-.02,2.61c-.01.59-.12,1.18-.13,1.76l-.13,13.23c-.08,2.38-.15,4.76-.27,7.14l-.12,10.85c0,.7-.11,1.4-.13,2.09l-.16,12.83c-.02.63-.1,1.24-.11,1.87v5.38c-.01,3.37.12,4.52-4.03,4.53h-3.32Z"/>
  <path class="st1" d="M17.21,60.75l11.93-14.33c2.07-2.14,5.04,2.73,6.25,4.15l15.05,17.78c.6.7,1.79,1.75,1.74,2.76-.08,1.54-1.66,1.26-2.68,1.23h-2.47c-3.12-.02-6.33.13-9.44-.14l-.09,8.16c.09,14.09,9.85,26.91,24.29,28.26,15.38,1.43,27.47-11.08,28.74-26.07.11-1.26.04-2.57.03-3.84l-.03-6.54h-12.73c-.35.01-.81.07-1.14-.05-.58-.22-1.15-1.2-.88-1.8.22-.49.72-.94,1.08-1.34l17.33-20.39c.73-.9,1.4-2.31,2.54-2.74l.08-.03c2.1-.09,3.1,2.08,4.3,3.49l16.91,19.67c.38.41.83.81,1.16,1.26.59.8.23,2.35-.86,2.45-.45.04-.93,0-1.39,0l-11.74-.03c-.06.09.04,2.54.04,2.83.01,2.9.18,5.91-.17,8.78-2.4,19.63-17.31,34.95-37.39,36.77-22.65,2.05-42.91-15.2-44.76-38.04-.12-1.5-.06-3.05-.06-4.56v-3.26c.01-.79,0-1.59.12-2.37l.02-.12c-.32-.1-.79-.04-1.13-.06l-10.53-.06c-1.6.02-2.61.64-3.14-1.37l.21-.4c.28-.42.69-.78,1.03-1.15l7.76-8.91Z"/>
  <path class="st0" d="M191.82,25.36h3.48c1.07.01,4.06.17,4.21,1.71.06.59-.02,1.21-.02,1.8l.12,20.78c0,.76.17,1.49.19,2.23l.02,6.62c.01.56.11,1.11.13,1.67l.04,3.83c.02.4.11.8.12,1.2l.02,6.03c0,.66.15,1.3.17,1.94l.02,6.84c0,.75.14,1.49.15,2.24l.04,7.1c.3.06.65.02.95.02h11.19c.34-.02.9-.1,1.19.06,1.78.99-.74,2.81-1.41,3.54l-17.56,20.24c-.79.94-1.43,2.12-2.73,2.35-.83-.01-1.37-.35-1.93-.95l-18.64-21.63c-.71-.83-1.7-1.59-2.17-2.59.41-1.32,1.13-1.19,2.26-1.18l11.71-.02c.07-.49.04-1.01.04-1.51l.02-2.61c.01-.59.12-1.18.13-1.76l.13-13.23c.08-2.38.15-4.76.27-7.14l.12-10.85c0-.7.11-1.4.12-2.09l.16-12.83c.02-.63.1-1.24.11-1.87v-5.38c.01-3.37-.12-4.52,4.03-4.53h3.32Z"/>
  <path class="st0" d="M238.79,67.25l-11.93,14.33c-2.07,2.14-5.04-2.73-6.25-4.15l-15.05-17.78c-.6-.7-1.79-1.75-1.74-2.76.08-1.55,1.66-1.26,2.68-1.23h2.47c3.12.02,6.33-.13,9.44.14l.09-8.16c-.09-14.09-9.85-26.91-24.29-28.26-15.38-1.43-27.47,11.08-28.74,26.07-.11,1.26-.04,2.57-.03,3.84l.03,6.54h12.73c.35-.01.81-.07,1.14.05.57.22,1.15,1.2.88,1.8-.22.49-.72.94-1.08,1.34l-17.33,20.39c-.73.9-1.4,2.31-2.54,2.74l-.08.03c-2.1.09-3.1-2.08-4.29-3.49l-16.91-19.67c-.38-.41-.83-.81-1.16-1.26-.59-.8-.23-2.35.86-2.45.45-.04.94,0,1.39,0l11.74.03c.06-.09-.04-2.54-.04-2.83-.01-2.9-.18-5.91.17-8.78,2.4-19.63,17.31-34.95,37.38-36.77,22.65-2.05,42.92,15.2,44.76,38.04.12,1.5.06,3.05.06,4.56v3.26c-.01.79,0,1.59-.12,2.37l-.02.12c.32.1.79.04,1.13.06l10.53.06c1.6-.02,2.61-.64,3.14,1.37l-.21.4c-.28.42-.69.78-1.03,1.15l-7.76,8.91Z"/>
  <path class="st1" d="M320.18,102.64h-3.48c-1.07-.01-4.06-.17-4.21-1.7-.06-.59.02-1.21.02-1.8l-.12-20.78c0-.76-.17-1.49-.2-2.23l-.02-6.62c-.01-.56-.11-1.11-.13-1.67l-.04-3.83c-.02-.4-.11-.8-.12-1.2l-.02-6.03c-.01-.66-.15-1.3-.17-1.94l-.02-6.84c0-.76-.14-1.49-.15-2.24l-.04-7.1c-.3-.06-.64-.02-.95-.02h-11.19c-.34.02-.89.1-1.19-.06-1.77-.99.74-2.81,1.42-3.54l17.56-20.24c.79-.94,1.43-2.12,2.73-2.34.83.01,1.37.35,1.93.95l18.64,21.63c.71.83,1.7,1.59,2.17,2.59-.41,1.32-1.13,1.19-2.26,1.18l-11.71.02c-.07.49-.04,1.01-.04,1.51l-.02,2.61c-.01.59-.11,1.18-.13,1.76l-.13,13.23c-.08,2.38-.15,4.76-.27,7.14l-.12,10.85c0,.7-.11,1.4-.12,2.09l-.16,12.83c-.02.63-.1,1.24-.11,1.87v5.38c-.01,3.37.12,4.52-4.03,4.53h-3.32Z"/>
  <path class="st1" d="M273.21,60.75l11.93-14.33c2.07-2.14,5.04,2.73,6.25,4.15l15.05,17.78c.6.7,1.79,1.75,1.74,2.76-.08,1.54-1.66,1.26-2.68,1.23h-2.47c-3.12-.02-6.33.13-9.44-.14l-.08,8.16c.09,14.09,9.85,26.91,24.29,28.26,15.38,1.43,27.47-11.08,28.74-26.07.11-1.26.04-2.57.03-3.84l-.03-6.54h-12.73c-.35.01-.81.07-1.14-.05-.58-.22-1.15-1.2-.88-1.8.22-.49.72-.94,1.08-1.34l17.33-20.39c.73-.9,1.4-2.31,2.54-2.74l.08-.03c2.1-.09,3.1,2.08,4.3,3.49l16.91,19.67c.38.41.83.81,1.16,1.26.59.8.23,2.35-.86,2.45-.45.04-.93,0-1.39,0l-11.74-.03c-.06.09.04,2.54.04,2.83.01,2.9.18,5.91-.17,8.78-2.4,19.63-17.31,34.95-37.39,36.77-22.65,2.05-42.91-15.2-44.76-38.04-.12-1.5-.06-3.05-.06-4.56v-3.26c.02-.79,0-1.59.12-2.37l.02-.12c-.32-.1-.79-.04-1.13-.06l-10.53-.06c-1.6.02-2.61.64-3.14-1.37l.21-.4c.28-.42.69-.78,1.03-1.15l7.76-8.91Z"/>
  <path class="st0" d="M447.82,25.36h3.48c1.07.01,4.06.17,4.21,1.71.06.59-.02,1.21-.02,1.8l.12,20.78c0,.76.17,1.49.2,2.23l.02,6.62c.01.56.11,1.11.13,1.67l.04,3.83c.02.4.11.8.12,1.2l.02,6.03c.01.66.15,1.3.17,1.94l.02,6.84c0,.75.14,1.49.15,2.24l.04,7.1c.3.06.64.02.95.02h11.19c.34-.02.89-.1,1.19.06,1.77.99-.74,2.81-1.42,3.54l-17.56,20.24c-.79.94-1.43,2.12-2.73,2.35-.83-.01-1.37-.35-1.93-.95l-18.64-21.63c-.71-.83-1.7-1.59-2.17-2.59.41-1.32,1.13-1.19,2.26-1.18l11.71-.02c.07-.49.04-1.01.04-1.51l.02-2.61c.01-.59.11-1.18.13-1.76l.13-13.23c.08-2.38.15-4.76.27-7.14l.12-10.85c0-.7.11-1.4.12-2.09l.16-12.83c.02-.63.1-1.24.11-1.87v-5.38c.01-3.37-.12-4.52,4.03-4.53h3.32Z"/>
  <path class="st0" d="M494.79,67.25l-11.93,14.33c-2.07,2.14-5.04-2.73-6.25-4.15l-15.05-17.78c-.6-.7-1.8-1.75-1.74-2.76.08-1.55,1.66-1.26,2.68-1.23h2.47c3.12.02,6.33-.13,9.44.14l.08-8.16c-.09-14.09-9.85-26.91-24.29-28.26-15.38-1.43-27.47,11.08-28.74,26.07-.11,1.26-.04,2.57-.03,3.84l.03,6.54h12.73c.35-.01.81-.07,1.14.05.58.22,1.15,1.2.88,1.8-.22.49-.72.94-1.08,1.34l-17.33,20.39c-.73.9-1.4,2.31-2.54,2.74l-.08.03c-2.1.09-3.1-2.08-4.3-3.49l-16.91-19.67c-.38-.41-.83-.81-1.16-1.26-.59-.8-.23-2.35.86-2.45.45-.04.93,0,1.39,0l11.74.03c.06-.09-.04-2.54-.04-2.83-.01-2.9-.18-5.91.17-8.78,2.4-19.63,17.31-34.95,37.39-36.77,22.65-2.05,42.91,15.2,44.76,38.04.12,1.5.06,3.05.06,4.56v3.26c-.02.79,0,1.59-.12,2.37l-.02.12c.32.1.79.04,1.13.06l10.53.06c1.6-.02,2.61-.64,3.14,1.37l-.21.4c-.28.42-.69.78-1.03,1.15l-7.76,8.91Z"/>
  <path class="st0" d="M-.18,153.36h3.48c1.07.01,4.06.17,4.21,1.71.06.59-.02,1.21-.02,1.8l.12,20.78c0,.76.17,1.49.2,2.23l.02,6.62c.01.56.11,1.11.13,1.67l.04,3.83c.02.4.11.79.12,1.2l.02,6.03c.01.66.16,1.29.17,1.94l.02,6.84c0,.76.14,1.49.15,2.24l.04,7.1c.3.06.65.02.95.02h11.19c.34-.02.89-.1,1.19.06,1.78.99-.74,2.81-1.41,3.54l-17.56,20.24c-.79.94-1.43,2.12-2.73,2.35-.83-.01-1.37-.35-1.93-.95l-18.64-21.63c-.71-.84-1.7-1.59-2.17-2.59.41-1.32,1.13-1.19,2.26-1.18l11.71-.02c.07-.49.04-1.01.04-1.51l.02-2.61c.01-.59.12-1.18.13-1.76l.13-13.23c.08-2.39.15-4.76.27-7.14l.12-10.85c0-.7.11-1.39.13-2.09l.16-12.83c.02-.63.1-1.24.11-1.87v-5.38c.01-3.37-.12-4.53,4.03-4.53H-.18Z"/>
  <path class="st0" d="M46.78,195.26l-11.93,14.33c-2.07,2.14-5.04-2.73-6.25-4.15l-15.05-17.78c-.6-.7-1.8-1.75-1.74-2.76.08-1.55,1.66-1.26,2.68-1.23h2.47c3.12.02,6.33-.13,9.44.14l.09-8.16c-.09-14.09-9.85-26.91-24.29-28.26-15.38-1.43-27.47,11.08-28.74,26.07-.11,1.26-.04,2.57-.03,3.84l.03,6.54h12.73c.35-.01.81-.07,1.14.05.58.22,1.15,1.2.88,1.8-.22.49-.72.94-1.08,1.34l-17.33,20.39c-.73.9-1.4,2.31-2.54,2.74l-.08.03c-2.1.09-3.1-2.08-4.3-3.49l-16.91-19.67c-.38-.41-.83-.81-1.16-1.26-.59-.79-.23-2.35.86-2.45.45-.04.94,0,1.39,0l11.74.03c.06-.09-.04-2.54-.04-2.83-.01-2.9-.18-5.91.17-8.78,2.4-19.63,17.31-34.95,37.39-36.77,22.65-2.05,42.91,15.21,44.76,38.04.12,1.5.06,3.05.06,4.56v3.26c-.01.79,0,1.59-.12,2.37l-.02.12c.32.1.79.04,1.13.06l10.53.06c1.6-.02,2.61-.64,3.14,1.36l-.21.4c-.28.42-.69.78-1.03,1.15l-7.76,8.91Z"/>
  <path class="st1" d="M128.18,230.64h-3.48c-1.06-.01-4.06-.17-4.21-1.71-.06-.59.02-1.21.02-1.8l-.12-20.78c0-.76-.17-1.49-.19-2.23l-.02-6.62c-.01-.56-.11-1.11-.13-1.67l-.03-3.83c-.02-.4-.11-.79-.12-1.2l-.02-6.03c0-.66-.15-1.29-.17-1.94l-.02-6.84c0-.76-.14-1.49-.15-2.24l-.04-7.1c-.3-.06-.65-.02-.95-.02h-11.19c-.34.02-.89.1-1.19-.06-1.78-.99.74-2.81,1.42-3.54l17.56-20.24c.79-.94,1.43-2.12,2.73-2.35.83.01,1.37.35,1.93.95l18.64,21.63c.71.84,1.7,1.59,2.17,2.59-.41,1.32-1.13,1.19-2.26,1.18l-11.71.02c-.07.49-.04,1.01-.04,1.51l-.02,2.61c-.01.59-.12,1.18-.13,1.76l-.13,13.23c-.08,2.39-.15,4.76-.27,7.14l-.12,10.85c0,.7-.11,1.39-.12,2.09l-.16,12.83c-.02.63-.1,1.24-.11,1.87v5.38c-.01,3.37.12,4.52-4.03,4.53h-3.32Z"/>
  <path class="st1" d="M81.21,188.74l11.93-14.33c2.07-2.14,5.04,2.73,6.25,4.15l15.05,17.78c.6.7,1.79,1.75,1.74,2.76-.08,1.55-1.66,1.26-2.68,1.23h-2.47c-3.12-.02-6.33.13-9.44-.14l-.09,8.16c.09,14.09,9.85,26.91,24.29,28.26,15.38,1.43,27.47-11.08,28.74-26.07.11-1.26.04-2.57.03-3.84l-.03-6.54h-12.73c-.35.01-.81.07-1.14-.05-.57-.22-1.15-1.2-.88-1.8.22-.49.72-.94,1.08-1.34l17.33-20.39c.73-.9,1.4-2.31,2.54-2.74l.08-.03c2.1-.09,3.1,2.08,4.29,3.49l16.91,19.67c.38.41.83.81,1.16,1.26.59.79.23,2.35-.86,2.45-.45.04-.93,0-1.39,0l-11.74-.03c-.06.09.04,2.54.04,2.83.01,2.9.18,5.91-.17,8.78-2.4,19.63-17.31,34.95-37.38,36.77-22.65,2.05-42.91-15.21-44.76-38.04-.12-1.5-.06-3.05-.06-4.56v-3.26c.01-.79,0-1.59.12-2.37l.02-.12c-.32-.1-.79-.04-1.13-.06l-10.53-.06c-1.6.02-2.61.64-3.14-1.37l.21-.4c.28-.42.69-.78,1.03-1.15l7.76-8.91Z"/>
  <path class="st0" d="M255.82,153.36h3.48c1.07.01,4.06.17,4.21,1.71.06.59-.02,1.21-.02,1.8l.12,20.78c0,.76.17,1.49.2,2.23l.02,6.62c.01.56.11,1.11.13,1.67l.04,3.83c.02.4.11.79.12,1.2l.02,6.03c.01.66.15,1.29.17,1.94l.02,6.84c0,.76.14,1.49.15,2.24l.04,7.1c.3.06.64.02.95.02h11.19c.34-.02.89-.1,1.19.06,1.77.99-.74,2.81-1.42,3.54l-17.56,20.24c-.79.94-1.43,2.12-2.73,2.35-.83-.01-1.37-.35-1.93-.95l-18.64-21.63c-.71-.84-1.7-1.59-2.17-2.59.41-1.32,1.13-1.19,2.26-1.18l11.71-.02c.07-.49.04-1.01.04-1.51l.02-2.61c.01-.59.12-1.18.13-1.76l.13-13.23c.08-2.39.15-4.76.27-7.14l.12-10.85c0-.7.11-1.39.12-2.09l.16-12.83c.02-.63.1-1.24.11-1.87v-5.38c.01-3.37-.12-4.53,4.03-4.53h3.32Z"/>
  <path class="st0" d="M302.79,195.26l-11.93,14.33c-2.07,2.14-5.04-2.73-6.25-4.15l-15.05-17.78c-.6-.7-1.8-1.75-1.74-2.76.08-1.55,1.66-1.26,2.68-1.23h2.47c3.12.02,6.33-.13,9.44.14l.08-8.16c-.09-14.09-9.85-26.91-24.29-28.26-15.38-1.43-27.47,11.08-28.74,26.07-.11,1.26-.04,2.57-.03,3.84l.03,6.54h12.73c.35-.01.81-.07,1.14.05.57.22,1.15,1.2.88,1.8-.22.49-.72.94-1.08,1.34l-17.33,20.39c-.73.9-1.4,2.31-2.54,2.74l-.08.03c-2.1.09-3.1-2.08-4.29-3.49l-16.91-19.67c-.38-.41-.83-.81-1.16-1.26-.59-.79-.23-2.35.86-2.45.45-.04.94,0,1.39,0l11.74.03c.06-.09-.04-2.54-.04-2.83-.01-2.9-.18-5.91.17-8.78,2.4-19.63,17.31-34.95,37.38-36.77,22.65-2.05,42.91,15.21,44.76,38.04.12,1.5.06,3.05.06,4.56v3.26c-.02.79,0,1.59-.12,2.37l-.02.12c.32.1.79.04,1.13.06l10.53.06c1.6-.02,2.61-.64,3.14,1.36l-.21.4c-.28.42-.69.78-1.03,1.15l-7.76,8.91Z"/>
  <path class="st1" d="M384.18,230.64h-3.48c-1.07-.01-4.06-.17-4.21-1.71-.06-.59.02-1.21.02-1.8l-.12-20.78c0-.76-.17-1.49-.2-2.23l-.02-6.62c-.01-.56-.11-1.11-.13-1.67l-.04-3.83c-.02-.4-.11-.79-.12-1.2l-.02-6.03c-.01-.66-.15-1.29-.17-1.94l-.02-6.84c0-.76-.14-1.49-.15-2.24l-.04-7.1c-.3-.06-.64-.02-.95-.02h-11.19c-.34.02-.89.1-1.19-.06-1.77-.99.74-2.81,1.42-3.54l17.56-20.24c.79-.94,1.43-2.12,2.73-2.35.83.01,1.37.35,1.93.95l18.64,21.63c.71.84,1.7,1.59,2.17,2.59-.41,1.32-1.13,1.19-2.26,1.18l-11.71.02c-.07.49-.04,1.01-.04,1.51l-.02,2.61c-.01.59-.11,1.18-.13,1.76l-.13,13.23c-.08,2.39-.15,4.76-.27,7.14l-.12,10.85c0,.7-.11,1.39-.12,2.09l-.16,12.83c-.02.63-.1,1.24-.11,1.87v5.38c-.01,3.37.12,4.52-4.03,4.53h-3.32Z"/>
  <path class="st1" d="M337.21,188.74l11.93-14.33c2.07-2.14,5.04,2.73,6.25,4.15l15.05,17.78c.6.7,1.79,1.75,1.74,2.76-.08,1.55-1.66,1.26-2.68,1.23h-2.47c-3.12-.02-6.33.13-9.44-.14l-.08,8.16c.09,14.09,9.85,26.91,24.29,28.26,15.38,1.43,27.47-11.08,28.74-26.07.11-1.26.04-2.57.03-3.84l-.03-6.54h-12.73c-.35.01-.81.07-1.14-.05-.58-.22-1.15-1.2-.88-1.8.22-.49.72-.94,1.08-1.34l17.33-20.39c.73-.9,1.4-2.31,2.54-2.74l.08-.03c2.1-.09,3.1,2.08,4.3,3.49l16.91,19.67c.38.41.83.81,1.16,1.26.59.79.23,2.35-.86,2.45-.45.04-.93,0-1.39,0l-11.74-.03c-.06.09.04,2.54.04,2.83.01,2.9.18,5.91-.17,8.78-2.4,19.63-17.31,34.95-37.39,36.77-22.65,2.05-42.91-15.21-44.76-38.04-.12-1.5-.06-3.05-.06-4.56v-3.26c.02-.79,0-1.59.12-2.37l.02-.12c-.32-.1-.79-.04-1.13-.06l-10.53-.06c-1.6.02-2.61.64-3.14-1.37l.21-.4c.28-.42.69-.78,1.03-1.15l7.76-8.91Z"/>
  <path class="st0" d="M511.82,153.36h3.48c1.07.01,4.06.17,4.21,1.71.06.59-.02,1.21-.02,1.8l.12,20.78c0,.76.17,1.49.2,2.23l.02,6.62c.01.56.11,1.11.13,1.67l.03,3.83c.02.4.11.79.12,1.2l.02,6.03c.01.66.16,1.29.18,1.94l.02,6.84c0,.76.14,1.49.15,2.24l.04,7.1c.3.06.64.02.95.02h11.19c.34-.02.89-.1,1.19.06,1.78.99-.73,2.81-1.41,3.54l-17.56,20.24c-.79.94-1.43,2.12-2.73,2.35-.83-.01-1.37-.35-1.93-.95l-18.64-21.63c-.71-.84-1.7-1.59-2.17-2.59.41-1.32,1.13-1.19,2.26-1.18l11.71-.02c.07-.49.04-1.01.04-1.51l.02-2.61c.01-.59.11-1.18.13-1.76l.13-13.23c.08-2.39.15-4.76.27-7.14l.12-10.85c0-.7.11-1.39.12-2.09l.16-12.83c.02-.63.1-1.24.11-1.87v-5.38c.01-3.37-.12-4.53,4.03-4.53h3.32Z"/>
  <path class="st0" d="M558.78,195.26l-11.93,14.33c-2.07,2.14-5.04-2.73-6.25-4.15l-15.05-17.78c-.6-.7-1.8-1.75-1.74-2.76.08-1.55,1.66-1.26,2.68-1.23h2.47c3.12.02,6.33-.13,9.44.14l.09-8.16c-.09-14.09-9.85-26.91-24.29-28.26-15.38-1.43-27.47,11.08-28.74,26.07-.11,1.26-.04,2.57-.03,3.84l.03,6.54h12.73c.35-.01.81-.07,1.14.05.58.22,1.15,1.2.88,1.8-.22.49-.72.94-1.08,1.34l-17.33,20.39c-.73.9-1.4,2.31-2.54,2.74l-.08.03c-2.1.09-3.1-2.08-4.3-3.49l-16.91-19.67c-.38-.41-.83-.81-1.16-1.26-.59-.79-.23-2.35.86-2.45.45-.04.93,0,1.39,0l11.74.03c.06-.09-.04-2.54-.04-2.83-.01-2.9-.18-5.91.17-8.78,2.4-19.63,17.31-34.95,37.39-36.77,22.65-2.05,42.91,15.21,44.76,38.04.12,1.5.06,3.05.06,4.56v3.26c-.01.79,0,1.59-.12,2.37l-.02.12c.32.1.79.04,1.13.06l10.53.06c1.6-.02,2.61-.64,3.14,1.36l-.21.4c-.28.42-.69.78-1.03,1.15l-7.76,8.91Z"/>
  <path class="st1" d="M64.18,358.64h-3.48c-1.07-.01-4.06-.17-4.21-1.71-.06-.59.02-1.21.02-1.8l-.12-20.78c0-.76-.17-1.49-.2-2.23l-.02-6.62c-.01-.56-.11-1.11-.13-1.66l-.04-3.83c-.02-.4-.11-.8-.12-1.2l-.02-6.03c-.01-.66-.16-1.3-.17-1.94l-.02-6.84c0-.76-.14-1.49-.15-2.24l-.04-7.1c-.3-.06-.65-.02-.95-.02h-11.19c-.34.02-.89.1-1.19-.06-1.78-.99.74-2.81,1.42-3.54l17.56-20.24c.79-.94,1.43-2.12,2.73-2.35.83.01,1.37.35,1.93.95l18.64,21.64c.71.83,1.7,1.59,2.17,2.59-.41,1.32-1.13,1.19-2.26,1.18l-11.71.02c-.07.49-.04,1.01-.04,1.51l-.02,2.61c-.01.59-.12,1.18-.13,1.76l-.13,13.23c-.08,2.38-.15,4.76-.27,7.14l-.12,10.85c0,.7-.11,1.4-.13,2.09l-.16,12.83c-.02.63-.1,1.24-.11,1.87v5.38c-.01,3.37.12,4.52-4.03,4.53h-3.32Z"/>
  <path class="st1" d="M17.21,316.74l11.93-14.33c2.07-2.14,5.04,2.73,6.25,4.14l15.05,17.78c.6.7,1.79,1.75,1.74,2.76-.08,1.55-1.66,1.26-2.68,1.23h-2.47c-3.12-.02-6.33.14-9.44-.14l-.09,8.17c.09,14.09,9.85,26.91,24.29,28.26,15.38,1.43,27.47-11.08,28.74-26.07.11-1.26.04-2.57.03-3.84l-.03-6.54h-12.73c-.35.02-.81.08-1.14-.05-.58-.22-1.15-1.2-.88-1.8.22-.49.72-.94,1.08-1.34l17.33-20.39c.73-.9,1.4-2.31,2.54-2.73l.08-.03c2.1-.09,3.1,2.08,4.3,3.49l16.91,19.67c.38.41.83.81,1.16,1.26.59.8.23,2.35-.86,2.45-.45.04-.93,0-1.39,0l-11.74-.03c-.06.09.04,2.54.04,2.83.01,2.9.18,5.91-.17,8.78-2.4,19.63-17.31,34.95-37.39,36.77-22.65,2.05-42.91-15.2-44.76-38.04-.12-1.5-.06-3.05-.06-4.56v-3.26c.01-.79,0-1.59.12-2.37l.02-.12c-.32-.1-.79-.04-1.13-.06l-10.53-.06c-1.6.02-2.61.64-3.14-1.37l.21-.4c.28-.42.69-.78,1.03-1.15l7.76-8.91Z"/>
  <path class="st0" d="M191.82,281.36h3.48c1.07.01,4.06.17,4.21,1.71.06.59-.02,1.21-.02,1.8l.12,20.78c0,.76.17,1.49.19,2.23l.02,6.62c.01.56.11,1.11.13,1.66l.04,3.83c.02.4.11.8.12,1.2l.02,6.03c0,.66.15,1.3.17,1.94l.02,6.84c0,.76.14,1.49.15,2.24l.04,7.1c.3.06.65.02.95.02h11.19c.34-.02.9-.1,1.19.06,1.78.99-.74,2.81-1.41,3.54l-17.56,20.24c-.79.94-1.43,2.12-2.73,2.35-.83-.01-1.37-.35-1.93-.95l-18.64-21.63c-.71-.83-1.7-1.59-2.17-2.59.41-1.32,1.13-1.19,2.26-1.18l11.71-.02c.07-.49.04-1.01.04-1.51l.02-2.61c.01-.59.12-1.18.13-1.76l.13-13.23c.08-2.38.15-4.76.27-7.14l.12-10.85c0-.7.11-1.4.12-2.09l.16-12.83c.02-.63.1-1.24.11-1.87v-5.38c.01-3.37-.12-4.52,4.03-4.53h3.32Z"/>
  <path class="st0" d="M238.79,323.26l-11.93,14.33c-2.07,2.14-5.04-2.73-6.25-4.14l-15.05-17.78c-.6-.7-1.79-1.75-1.74-2.76.08-1.55,1.66-1.26,2.68-1.23h2.47c3.12.02,6.33-.14,9.44.14l.09-8.17c-.09-14.09-9.85-26.91-24.29-28.26-15.38-1.43-27.47,11.08-28.74,26.07-.11,1.26-.04,2.57-.03,3.84l.03,6.54h12.73c.35-.02.81-.08,1.14.05.57.22,1.15,1.2.88,1.8-.22.49-.72.94-1.08,1.34l-17.33,20.39c-.73.9-1.4,2.31-2.54,2.73l-.08.03c-2.1.09-3.1-2.08-4.29-3.49l-16.91-19.67c-.38-.41-.83-.81-1.16-1.26-.59-.8-.23-2.35.86-2.45.45-.04.94,0,1.39,0l11.74.03c.06-.09-.04-2.54-.04-2.83-.01-2.9-.18-5.91.17-8.78,2.4-19.63,17.31-34.95,37.38-36.77,22.65-2.05,42.92,15.2,44.76,38.04.12,1.5.06,3.05.06,4.56v3.26c-.01.79,0,1.59-.12,2.37l-.02.12c.32.1.79.04,1.13.06l10.53.06c1.6-.02,2.61-.64,3.14,1.37l-.21.4c-.28.42-.69.78-1.03,1.15l-7.76,8.91Z"/>
  <path class="st1" d="M320.18,358.64h-3.48c-1.07-.01-4.06-.17-4.21-1.71-.06-.59.02-1.21.02-1.8l-.12-20.78c0-.76-.17-1.49-.2-2.23l-.02-6.62c-.01-.56-.11-1.11-.13-1.66l-.04-3.83c-.02-.4-.11-.8-.12-1.2l-.02-6.03c-.01-.66-.15-1.3-.17-1.94l-.02-6.84c0-.76-.14-1.49-.15-2.24l-.04-7.1c-.3-.06-.64-.02-.95-.02h-11.19c-.34.02-.89.1-1.19-.06-1.77-.99.74-2.81,1.42-3.54l17.56-20.24c.79-.94,1.43-2.12,2.73-2.35.83.01,1.37.35,1.93.95l18.64,21.64c.71.83,1.7,1.59,2.17,2.59-.41,1.32-1.13,1.19-2.26,1.18l-11.71.02c-.07.49-.04,1.01-.04,1.51l-.02,2.61c-.01.59-.11,1.18-.13,1.76l-.13,13.23c-.08,2.38-.15,4.76-.27,7.14l-.12,10.85c0,.7-.11,1.4-.12,2.09l-.16,12.83c-.02.63-.1,1.24-.11,1.87v5.38c-.01,3.37.12,4.52-4.03,4.53h-3.32Z"/>
  <path class="st1" d="M273.21,316.74l11.93-14.33c2.07-2.14,5.04,2.73,6.25,4.14l15.05,17.78c.6.7,1.79,1.75,1.74,2.76-.08,1.55-1.66,1.26-2.68,1.23h-2.47c-3.12-.02-6.33.14-9.44-.14l-.08,8.17c.09,14.09,9.85,26.91,24.29,28.26,15.38,1.43,27.47-11.08,28.74-26.07.11-1.26.04-2.57.03-3.84l-.03-6.54h-12.73c-.35.02-.81.08-1.14-.05-.58-.22-1.15-1.2-.88-1.8.22-.49.72-.94,1.08-1.34l17.33-20.39c.73-.9,1.4-2.31,2.54-2.73l.08-.03c2.1-.09,3.1,2.08,4.3,3.49l16.91,19.67c.38.41.83.81,1.16,1.26.59.8.23,2.35-.86,2.45-.45.04-.93,0-1.39,0l-11.74-.03c-.06.09.04,2.54.04,2.83.01,2.9.18,5.91-.17,8.78-2.4,19.63-17.31,34.95-37.39,36.77-22.65,2.05-42.91-15.2-44.76-38.04-.12-1.5-.06-3.05-.06-4.56v-3.26c.02-.79,0-1.59.12-2.37l.02-.12c-.32-.1-.79-.04-1.13-.06l-10.53-.06c-1.6.02-2.61.64-3.14-1.37l.21-.4c.28-.42.69-.78,1.03-1.15l7.76-8.91Z"/>
  <path class="st0" d="M447.82,281.36h3.48c1.07.01,4.06.17,4.21,1.71.06.59-.02,1.21-.02,1.8l.12,20.78c0,.76.17,1.49.2,2.23l.02,6.62c.01.56.11,1.11.13,1.66l.04,3.83c.02.4.11.8.12,1.2l.02,6.03c.01.66.15,1.3.17,1.94l.02,6.84c0,.76.14,1.49.15,2.24l.04,7.1c.3.06.64.02.95.02h11.19c.34-.02.89-.1,1.19.06,1.77.99-.74,2.81-1.42,3.54l-17.56,20.24c-.79.94-1.43,2.12-2.73,2.35-.83-.01-1.37-.35-1.93-.95l-18.64-21.63c-.71-.83-1.7-1.59-2.17-2.59.41-1.32,1.13-1.19,2.26-1.18l11.71-.02c.07-.49.04-1.01.04-1.51l.02-2.61c.01-.59.11-1.18.13-1.76l.13-13.23c.08-2.38.15-4.76.27-7.14l.12-10.85c0-.7.11-1.4.12-2.09l.16-12.83c.02-.63.1-1.24.11-1.87v-5.38c.01-3.37-.12-4.52,4.03-4.53h3.32Z"/>
  <path class="st0" d="M494.79,323.26l-11.93,14.33c-2.07,2.14-5.04-2.73-6.25-4.14l-15.05-17.78c-.6-.7-1.8-1.75-1.74-2.76.08-1.55,1.66-1.26,2.68-1.23h2.47c3.12.02,6.33-.14,9.44.14l.08-8.17c-.09-14.09-9.85-26.91-24.29-28.26-15.38-1.43-27.47,11.08-28.74,26.07-.11,1.26-.04,2.57-.03,3.84l.03,6.54h12.73c.35-.02.81-.08,1.14.05.58.22,1.15,1.2.88,1.8-.22.49-.72.94-1.08,1.34l-17.33,20.39c-.73.9-1.4,2.31-2.54,2.73l-.08.03c-2.1.09-3.1-2.08-4.3-3.49l-16.91-19.67c-.38-.41-.83-.81-1.16-1.26-.59-.8-.23-2.35.86-2.45.45-.04.93,0,1.39,0l11.74.03c.06-.09-.04-2.54-.04-2.83-.01-2.9-.18-5.91.17-8.78,2.4-19.63,17.31-34.95,37.39-36.77,22.65-2.05,42.91,15.2,44.76,38.04.12,1.5.06,3.05.06,4.56v3.26c-.02.79,0,1.59-.12,2.37l-.02.12c.32.1.79.04,1.13.06l10.53.06c1.6-.02,2.61-.64,3.14,1.37l-.21.4c-.28.42-.69.78-1.03,1.15l-7.76,8.91Z"/>
  <path class="st0" d="M-.18,409.36h3.48c1.07.01,4.06.17,4.21,1.71.06.59-.02,1.21-.02,1.8l.12,20.78c0,.76.17,1.49.2,2.23l.02,6.62c.01.56.11,1.11.13,1.66l.04,3.83c.02.4.11.8.12,1.2l.02,6.03c.01.66.16,1.3.17,1.94l.02,6.84c0,.76.14,1.49.15,2.24l.04,7.1c.3.06.65.02.95.02h11.19c.34-.02.89-.1,1.19.06,1.78.99-.74,2.81-1.41,3.54l-17.56,20.24c-.79.94-1.43,2.12-2.73,2.35-.83-.01-1.37-.35-1.93-.95l-18.64-21.63c-.71-.83-1.7-1.59-2.17-2.59.41-1.32,1.13-1.19,2.26-1.18l11.71-.02c.07-.49.04-1.01.04-1.51l.02-2.61c.01-.59.12-1.18.13-1.76l.13-13.23c.08-2.38.15-4.76.27-7.14l.12-10.85c0-.7.11-1.4.13-2.09l.16-12.83c.02-.63.1-1.24.11-1.87v-5.38c.01-3.37-.12-4.52,4.03-4.53H-.18Z"/>
  <path class="st0" d="M46.78,451.26l-11.93,14.33c-2.07,2.14-5.04-2.73-6.25-4.14l-15.05-17.78c-.6-.7-1.8-1.75-1.74-2.76.08-1.55,1.66-1.26,2.68-1.23h2.47c3.12.02,6.33-.14,9.44.14l.09-8.17c-.09-14.09-9.85-26.91-24.29-28.26-15.38-1.43-27.47,11.08-28.74,26.07-.11,1.26-.04,2.57-.03,3.84l.03,6.54h12.73c.35-.02.81-.08,1.14.05.58.22,1.15,1.2.88,1.8-.22.49-.72.94-1.08,1.34l-17.33,20.39c-.73.9-1.4,2.31-2.54,2.73l-.08.03c-2.1.09-3.1-2.08-4.3-3.49l-16.91-19.67c-.38-.41-.83-.81-1.16-1.26-.59-.8-.23-2.35.86-2.45.45-.04.94,0,1.39,0l11.74.03c.06-.09-.04-2.54-.04-2.83-.01-2.9-.18-5.91.17-8.78,2.4-19.63,17.31-34.95,37.39-36.77,22.65-2.05,42.91,15.2,44.76,38.04.12,1.5.06,3.05.06,4.56v3.26c-.01.79,0,1.59-.12,2.37l-.02.12c.32.1.79.04,1.13.06l10.53.06c1.6-.02,2.61-.64,3.14,1.37l-.21.4c-.28.42-.69.78-1.03,1.15l-7.76,8.91Z"/>
  <path class="st1" d="M128.18,486.64h-3.48c-1.06-.01-4.06-.17-4.21-1.71-.06-.59.02-1.21.02-1.8l-.12-20.78c0-.76-.17-1.49-.19-2.23l-.02-6.62c-.01-.56-.11-1.11-.13-1.66l-.03-3.83c-.02-.4-.11-.8-.12-1.2l-.02-6.03c0-.66-.15-1.3-.17-1.94l-.02-6.84c0-.76-.14-1.49-.15-2.24l-.04-7.1c-.3-.06-.65-.02-.95-.02h-11.19c-.34.02-.89.1-1.19-.06-1.78-.99.74-2.81,1.42-3.54l17.56-20.24c.79-.94,1.43-2.12,2.73-2.35.83.01,1.37.35,1.93.95l18.64,21.64c.71.83,1.7,1.59,2.17,2.59-.41,1.32-1.13,1.19-2.26,1.18l-11.71.02c-.07.49-.04,1.01-.04,1.51l-.02,2.61c-.01.59-.12,1.18-.13,1.76l-.13,13.23c-.08,2.38-.15,4.76-.27,7.14l-.12,10.85c0,.7-.11,1.4-.12,2.09l-.16,12.83c-.02.63-.1,1.24-.11,1.87v5.38c-.01,3.37.12,4.52-4.03,4.53h-3.32Z"/>
  <path class="st1" d="M81.21,444.74l11.93-14.33c2.07-2.14,5.04,2.73,6.25,4.14l15.05,17.78c.6.7,1.79,1.75,1.74,2.76-.08,1.55-1.66,1.26-2.68,1.23h-2.47c-3.12-.02-6.33.14-9.44-.14l-.09,8.17c.09,14.09,9.85,26.91,24.29,28.26,15.38,1.43,27.47-11.08,28.74-26.07.11-1.26.04-2.57.03-3.84l-.03-6.54h-12.73c-.35.02-.81.08-1.14-.05-.57-.22-1.15-1.2-.88-1.8.22-.49.72-.94,1.08-1.34l17.33-20.39c.73-.9,1.4-2.31,2.54-2.73l.08-.03c2.1-.09,3.1,2.08,4.29,3.49l16.91,19.67c.38.41.83.81,1.16,1.26.59.8.23,2.35-.86,2.45-.45.04-.93,0-1.39,0l-11.74-.03c-.06.09.04,2.54.04,2.83.01,2.9.18,5.91-.17,8.78-2.4,19.63-17.31,34.95-37.38,36.77-22.65,2.05-42.91-15.2-44.76-38.04-.12-1.5-.06-3.05-.06-4.56v-3.26c.01-.79,0-1.59.12-2.37l.02-.12c-.32-.1-.79-.04-1.13-.06l-10.53-.06c-1.6.02-2.61.64-3.14-1.37l.21-.4c.28-.42.69-.78,1.03-1.15l7.76-8.91Z"/>
  <path class="st0" d="M255.82,409.36h3.48c1.07.01,4.06.17,4.21,1.71.06.59-.02,1.21-.02,1.8l.12,20.78c0,.76.17,1.49.2,2.23l.02,6.62c.01.56.11,1.11.13,1.66l.04,3.83c.02.4.11.8.12,1.2l.02,6.03c.01.66.15,1.3.17,1.94l.02,6.84c0,.76.14,1.49.15,2.24l.04,7.1c.3.06.64.02.95.02h11.19c.34-.02.89-.1,1.19.06,1.77.99-.74,2.81-1.42,3.54l-17.56,20.24c-.79.94-1.43,2.12-2.73,2.35-.83-.01-1.37-.35-1.93-.95l-18.64-21.63c-.71-.83-1.7-1.59-2.17-2.59.41-1.32,1.13-1.19,2.26-1.18l11.71-.02c.07-.49.04-1.01.04-1.51l.02-2.61c.01-.59.12-1.18.13-1.76l.13-13.23c.08-2.38.15-4.76.27-7.14l.12-10.85c0-.7.11-1.4.12-2.09l.16-12.83c.02-.63.1-1.24.11-1.87v-5.38c.01-3.37-.12-4.52,4.03-4.53h3.32Z"/>
  <path class="st0" d="M302.79,451.26l-11.93,14.33c-2.07,2.14-5.04-2.73-6.25-4.14l-15.05-17.78c-.6-.7-1.8-1.75-1.74-2.76.08-1.55,1.66-1.26,2.68-1.23h2.47c3.12.02,6.33-.14,9.44.14l.08-8.17c-.09-14.09-9.85-26.91-24.29-28.26-15.38-1.43-27.47,11.08-28.74,26.07-.11,1.26-.04,2.57-.03,3.84l.03,6.54h12.73c.35-.02.81-.08,1.14.05.57.22,1.15,1.2.88,1.8-.22.49-.72.94-1.08,1.34l-17.33,20.39c-.73.9-1.4,2.31-2.54,2.73l-.08.03c-2.1.09-3.1-2.08-4.29-3.49l-16.91-19.67c-.38-.41-.83-.81-1.16-1.26-.59-.8-.23-2.35.86-2.45.45-.04.94,0,1.39,0l11.74.03c.06-.09-.04-2.54-.04-2.83-.01-2.9-.18-5.91.17-8.78,2.4-19.63,17.31-34.95,37.38-36.77,22.65-2.05,42.91,15.2,44.76,38.04.12,1.5.06,3.05.06,4.56v3.26c-.02.79,0,1.59-.12,2.37l-.02.12c.32.1.79.04,1.13.06l10.53.06c1.6-.02,2.61-.64,3.14,1.37l-.21.4c-.28.42-.69.78-1.03,1.15l-7.76,8.91Z"/>
  <path class="st1" d="M384.18,486.64h-3.48c-1.07-.01-4.06-.17-4.21-1.71-.06-.59.02-1.21.02-1.8l-.12-20.78c0-.76-.17-1.49-.2-2.23l-.02-6.62c-.01-.56-.11-1.11-.13-1.66l-.04-3.83c-.02-.4-.11-.8-.12-1.2l-.02-6.03c-.01-.66-.15-1.3-.17-1.94l-.02-6.84c0-.76-.14-1.49-.15-2.24l-.04-7.1c-.3-.06-.64-.02-.95-.02h-11.19c-.34.02-.89.1-1.19-.06-1.77-.99.74-2.81,1.42-3.54l17.56-20.24c.79-.94,1.43-2.12,2.73-2.35.83.01,1.37.35,1.93.95l18.64,21.64c.71.83,1.7,1.59,2.17,2.59-.41,1.32-1.13,1.19-2.26,1.18l-11.71.02c-.07.49-.04,1.01-.04,1.51l-.02,2.61c-.01.59-.11,1.18-.13,1.76l-.13,13.23c-.08,2.38-.15,4.76-.27,7.14l-.12,10.85c0,.7-.11,1.4-.12,2.09l-.16,12.83c-.02.63-.1,1.24-.11,1.87v5.38c-.01,3.37.12,4.52-4.03,4.53h-3.32Z"/>
  <path class="st1" d="M337.21,444.74l11.93-14.33c2.07-2.14,5.04,2.73,6.25,4.14l15.05,17.78c.6.7,1.79,1.75,1.74,2.76-.08,1.55-1.66,1.26-2.68,1.23h-2.47c-3.12-.02-6.33.14-9.44-.14l-.08,8.17c.09,14.09,9.85,26.91,24.29,28.26,15.38,1.43,27.47-11.08,28.74-26.07.11-1.26.04-2.57.03-3.84l-.03-6.54h-12.73c-.35.02-.81.08-1.14-.05-.58-.22-1.15-1.2-.88-1.8.22-.49.72-.94,1.08-1.34l17.33-20.39c.73-.9,1.4-2.31,2.54-2.73l.08-.03c2.1-.09,3.1,2.08,4.3,3.49l16.91,19.67c.38.41.83.81,1.16,1.26.59.8.23,2.35-.86,2.45-.45.04-.93,0-1.39,0l-11.74-.03c-.06.09.04,2.54.04,2.83.01,2.9.18,5.91-.17,8.78-2.4,19.63-17.31,34.95-37.39,36.77-22.65,2.05-42.91-15.2-44.76-38.04-.12-1.5-.06-3.05-.06-4.56v-3.26c.02-.79,0-1.59.12-2.37l.02-.12c-.32-.1-.79-.04-1.13-.06l-10.53-.06c-1.6.02-2.61.64-3.14-1.37l.21-.4c.28-.42.69-.78,1.03-1.15l7.76-8.91Z"/>
  <path class="st0" d="M511.82,409.36h3.48c1.07.01,4.06.17,4.21,1.71.06.59-.02,1.21-.02,1.8l.12,20.78c0,.76.17,1.49.2,2.23l.02,6.62c.01.56.11,1.11.13,1.66l.03,3.83c.02.4.11.8.12,1.2l.02,6.03c.01.66.16,1.3.18,1.94l.02,6.84c0,.76.14,1.49.15,2.24l.04,7.1c.3.06.64.02.95.02h11.19c.34-.02.89-.1,1.19.06,1.78.99-.73,2.81-1.41,3.54l-17.56,20.24c-.79.94-1.43,2.12-2.73,2.35-.83-.01-1.37-.35-1.93-.95l-18.64-21.63c-.71-.83-1.7-1.59-2.17-2.59.41-1.32,1.13-1.19,2.26-1.18l11.71-.02c.07-.49.04-1.01.04-1.51l.02-2.61c.01-.59.11-1.18.13-1.76l.13-13.23c.08-2.38.15-4.76.27-7.14l.12-10.85c0-.7.11-1.4.12-2.09l.16-12.83c.02-.63.1-1.24.11-1.87v-5.38c.01-3.37-.12-4.52,4.03-4.53h3.32Z"/>
  <path class="st0" d="M558.78,451.26l-11.93,14.33c-2.07,2.14-5.04-2.73-6.25-4.14l-15.05-17.78c-.6-.7-1.8-1.75-1.74-2.76.08-1.55,1.66-1.26,2.68-1.23h2.47c3.12.02,6.33-.14,9.44.14l.09-8.17c-.09-14.09-9.85-26.91-24.29-28.26-15.38-1.43-27.47,11.08-28.74,26.07-.11,1.26-.04,2.57-.03,3.84l.03,6.54h12.73c.35-.02.81-.08,1.14.05.58.22,1.15,1.2.88,1.8-.22.49-.72.94-1.08,1.34l-17.33,20.39c-.73.9-1.4,2.31-2.54,2.73l-.08.03c-2.1.09-3.1-2.08-4.3-3.49l-16.91-19.67c-.38-.41-.83-.81-1.16-1.26-.59-.8-.23-2.35.86-2.45.45-.04.93,0,1.39,0l11.74.03c.06-.09-.04-2.54-.04-2.83-.01-2.9-.18-5.91.17-8.78,2.4-19.63,17.31-34.95,37.39-36.77,22.65-2.05,42.91,15.2,44.76,38.04.12,1.5.06,3.05.06,4.56v3.26c-.01.79,0,1.59-.12,2.37l-.02.12c.32.1.79.04,1.13.06l10.53.06c1.6-.02,2.61-.64,3.14,1.37l-.21.4c-.28.42-.69.78-1.03,1.15l-7.76,8.91Z"/>
</svg>