<svg width="67" height="66" viewBox="0 0 67 66" fill="#000" xmlns="http://www.w3.org/2000/svg">
<path d="M51.9336 49.5258C49.0848 44.5758 43.7352 41.25 37.625 41.25H29.375C23.2648 41.25 17.9152 44.5758 15.0664 49.5258C19.6039 54.5789 26.1781 57.75 33.5 57.75C40.8219 57.75 47.3961 54.566 51.9336 49.5258ZM0.5 33C0.5 24.2479 3.97678 15.8542 10.1655 9.66548C16.3542 3.47678 24.7479 0 33.5 0C42.2521 0 50.6458 3.47678 56.8345 9.66548C63.0232 15.8542 66.5 24.2479 66.5 33C66.5 41.7521 63.0232 50.1458 56.8345 56.3345C50.6458 62.5232 42.2521 66 33.5 66C24.7479 66 16.3542 62.5232 10.1655 56.3345C3.97678 50.1458 0.5 41.7521 0.5 33ZM33.5 35.0625C35.9615 35.0625 38.3223 34.0847 40.0628 32.3441C41.8034 30.6035 42.7812 28.2428 42.7812 25.7812C42.7812 23.3197 41.8034 20.959 40.0628 19.2184C38.3223 17.4778 35.9615 16.5 33.5 16.5C31.0385 16.5 28.6777 17.4778 26.9372 19.2184C25.1966 20.959 24.2188 23.3197 24.2188 25.7812C24.2188 28.2428 25.1966 30.6035 26.9372 32.3441C28.6777 34.0847 31.0385 35.0625 33.5 35.0625Z" fill="#000"/>
</svg>
