<svg width="75" height="70" viewBox="0 0 75 70" fill="none" xmlns="http://www.w3.org/2000/svg">
<path d="M51.6666 23.3333C57.3024 23.3333 62.7075 25.4931 66.6926 29.3376C70.6778 33.1821 72.9166 38.3964 72.9166 43.8333V67.75H58.7499V43.8333C58.7499 42.021 58.0036 40.2829 56.6753 39.0014C55.3469 37.7199 53.5452 37 51.6666 37C49.788 37 47.9863 37.7199 46.6579 39.0014C45.3295 40.2829 44.5833 42.021 44.5833 43.8333V67.75H30.4166V43.8333C30.4166 38.3964 32.6554 33.1821 36.6406 29.3376C40.6257 25.4931 46.0307 23.3333 51.6666 23.3333Z" stroke="#1E1E1E" stroke-width="4" stroke-linecap="round" stroke-linejoin="round"/>
<path d="M16.2499 26.75H2.08325V67.75H16.2499V26.75Z" stroke="#1E1E1E" stroke-width="4" stroke-linecap="round" stroke-linejoin="round"/>
<path d="M9.16658 16.5C13.0786 16.5 16.2499 13.4406 16.2499 9.66665C16.2499 5.8927 13.0786 2.83331 9.16658 2.83331C5.25457 2.83331 2.08325 5.8927 2.08325 9.66665C2.08325 13.4406 5.25457 16.5 9.16658 16.5Z" stroke="#1E1E1E" stroke-width="4" stroke-linecap="round" stroke-linejoin="round"/>
</svg>
