<svg width="57" height="75" viewBox="0 0 57 75" fill="#000" xmlns="http://www.w3.org/2000/svg">
<g clip-path="url(#clip0_18_98)">
<path d="M33.1758 4.6875C14.8438 4.6875 0 19.3799 0 37.5C0 55.6201 14.8438 70.3125 33.1758 70.3125C42.1711 70.3125 50.3203 66.7676 56.3023 61.0254C57.0445 60.3076 57.2375 59.1943 56.7625 58.2861C56.2875 57.3779 55.2633 56.8652 54.2391 57.041C52.7844 57.29 51.3 57.4219 49.7711 57.4219C35.3875 57.4219 23.7203 45.8789 23.7203 31.6406C23.7203 22.002 29.0641 13.6084 36.9758 9.18457C37.8813 8.67188 38.3414 7.64648 38.1187 6.65039C37.8961 5.6543 37.0352 4.90723 35.9961 4.81934C35.0609 4.74609 34.1258 4.70215 33.1758 4.70215V4.6875Z" fill="#000"/>
</g>
<defs>
<clipPath id="clip0_18_98">
<rect width="57" height="75" fill="#000"/>
</clipPath>
</defs>
</svg>
