<?xml version="1.0" encoding="utf-8"?>
<svg xmlns="http://www.w3.org/2000/svg" viewBox="0 0 312.6 43">
  <path d="M 0 42.549 L 0 0 L 4.044 0 L 16.126 28.261 L 16.126 0 L 21.064 0 L 21.064 42.549 L 17.282 42.549 L 5.042 13.5 L 5.042 42.549 L 0 42.549 Z M 35.667 42.969 C 33.286 42.969 31.448 42.505 30.152 41.577 C 28.856 40.648 27.954 39.283 27.447 37.479 C 26.939 35.676 26.685 33.461 26.685 30.835 L 26.685 23.9 C 26.685 21.204 26.948 18.963 27.473 17.177 C 27.998 15.39 28.917 14.043 30.231 13.132 C 31.543 12.221 33.356 11.766 35.667 11.766 C 38.224 11.766 40.106 12.292 41.314 13.343 C 42.522 14.392 43.319 15.907 43.704 17.886 C 44.089 19.864 44.282 22.237 44.282 25.004 L 44.282 27.472 L 32.305 27.472 L 32.305 33.566 C 32.305 34.792 32.419 35.79 32.647 36.56 C 32.874 37.331 33.243 37.899 33.75 38.267 C 34.258 38.635 34.914 38.819 35.72 38.819 C 36.56 38.819 37.2 38.617 37.637 38.215 C 38.075 37.812 38.372 37.234 38.53 36.481 C 38.688 35.728 38.766 34.845 38.766 33.829 L 38.766 31.99 L 44.23 31.99 L 44.23 33.145 C 44.23 36.192 43.581 38.592 42.286 40.343 C 40.991 42.093 38.784 42.969 35.667 42.969 Z M 32.305 24.426 L 38.766 24.426 L 38.766 21.694 C 38.766 20.433 38.697 19.374 38.556 18.516 C 38.416 17.658 38.127 17.011 37.69 16.573 C 37.252 16.135 36.56 15.916 35.615 15.916 C 34.704 15.916 34.013 16.126 33.539 16.547 C 33.067 16.967 32.744 17.676 32.568 18.674 C 32.393 19.672 32.305 21.047 32.305 22.798 L 32.305 24.426 Z M 53.738 42.969 C 52.546 42.969 51.619 42.653 50.953 42.023 C 50.287 41.392 49.824 40.604 49.561 39.659 C 49.298 38.714 49.167 37.751 49.167 36.77 L 49.167 12.186 L 54.787 12.186 L 54.787 35.09 C 54.787 36.175 54.946 37.024 55.26 37.637 C 55.576 38.25 56.223 38.556 57.204 38.556 C 57.834 38.556 58.492 38.372 59.174 38.005 C 59.857 37.637 60.513 37.19 61.144 36.665 L 61.144 12.186 L 66.764 12.186 L 66.764 42.549 L 61.144 42.549 L 61.144 39.554 C 60.163 40.5 59.051 41.305 57.808 41.971 C 56.565 42.636 55.208 42.969 53.738 42.969 Z M 80.579 42.969 C 79.003 42.969 77.734 42.671 76.771 42.076 C 75.808 41.48 75.108 40.639 74.67 39.554 C 74.233 38.469 74.013 37.19 74.013 35.72 L 74.013 15.916 L 70.809 15.916 L 70.809 12.186 L 74.013 12.186 L 74.013 3.309 L 79.634 3.309 L 79.634 12.186 L 84.519 12.186 L 84.519 15.916 L 79.634 15.916 L 79.634 35.351 C 79.634 36.543 79.827 37.391 80.212 37.899 C 80.597 38.407 81.332 38.661 82.418 38.661 C 82.698 38.661 83.022 38.643 83.39 38.608 C 83.757 38.574 84.117 38.539 84.467 38.504 L 84.467 42.653 C 83.767 42.759 83.119 42.838 82.523 42.889 C 81.928 42.942 81.28 42.969 80.579 42.969 Z M 88.827 42.549 L 88.827 12.186 L 94.448 12.186 L 94.448 16.494 C 95.568 14.637 96.689 13.394 97.809 12.764 C 98.929 12.134 100.05 11.819 101.171 11.819 C 101.311 11.819 101.443 11.819 101.565 11.819 C 101.687 11.819 101.854 11.837 102.064 11.871 L 102.064 18.07 C 101.644 17.894 101.162 17.746 100.619 17.623 C 100.077 17.501 99.525 17.439 98.965 17.439 C 98.089 17.439 97.292 17.64 96.575 18.044 C 95.857 18.446 95.148 19.225 94.448 20.381 L 94.448 42.549 L 88.827 42.549 Z M 109.628 42.969 C 108.437 42.969 107.387 42.627 106.476 41.944 C 105.566 41.262 104.848 40.386 104.323 39.318 C 103.797 38.25 103.535 37.12 103.535 35.929 C 103.535 34.039 103.85 32.445 104.48 31.149 C 105.111 29.853 105.977 28.76 107.08 27.866 C 108.184 26.973 109.461 26.194 110.915 25.529 C 112.369 24.863 113.901 24.216 115.511 23.586 L 115.511 21.431 C 115.511 20.206 115.442 19.19 115.301 18.385 C 115.161 17.58 114.872 16.975 114.435 16.573 C 113.997 16.17 113.34 15.969 112.464 15.969 C 111.694 15.969 111.073 16.143 110.6 16.494 C 110.127 16.845 109.786 17.344 109.576 17.991 C 109.366 18.638 109.26 19.4 109.26 20.276 L 109.26 21.8 L 103.693 21.59 C 103.762 18.227 104.533 15.75 106.003 14.156 C 107.474 12.563 109.75 11.766 112.832 11.766 C 115.844 11.766 117.98 12.59 119.241 14.235 C 120.501 15.881 121.132 18.262 121.132 21.379 L 121.132 35.247 C 121.132 36.192 121.159 37.102 121.21 37.978 C 121.263 38.853 121.333 39.668 121.421 40.421 C 121.508 41.174 121.587 41.883 121.658 42.549 L 116.509 42.549 C 116.405 41.988 116.273 41.279 116.116 40.421 C 115.957 39.563 115.844 38.784 115.774 38.084 C 115.423 39.274 114.749 40.386 113.751 41.419 C 112.753 42.452 111.379 42.969 109.628 42.969 Z M 111.834 38.136 C 112.395 38.136 112.92 37.978 113.411 37.663 C 113.901 37.347 114.338 36.989 114.723 36.587 C 115.109 36.183 115.371 35.859 115.511 35.614 L 115.511 27 C 114.636 27.49 113.813 27.98 113.042 28.471 C 112.272 28.961 111.598 29.477 111.02 30.02 C 110.443 30.563 109.987 31.176 109.655 31.858 C 109.322 32.542 109.156 33.321 109.156 34.196 C 109.156 35.422 109.383 36.385 109.838 37.086 C 110.293 37.786 110.958 38.136 111.834 38.136 Z M 131.113 42.969 C 129.921 42.969 128.871 42.627 127.96 41.944 C 127.05 41.262 126.332 40.386 125.807 39.318 C 125.282 38.25 125.019 37.12 125.019 35.929 C 125.019 34.039 125.334 32.445 125.964 31.149 C 126.595 29.853 127.461 28.76 128.565 27.866 C 129.668 26.973 130.946 26.194 132.4 25.529 C 133.853 24.863 135.385 24.216 136.995 23.586 L 136.995 21.431 C 136.995 20.206 136.926 19.19 136.786 18.385 C 136.645 17.58 136.357 16.975 135.919 16.573 C 135.482 16.17 134.825 15.969 133.949 15.969 C 133.178 15.969 132.557 16.143 132.084 16.494 C 131.612 16.845 131.27 17.344 131.06 17.991 C 130.85 18.638 130.745 19.4 130.745 20.276 L 130.745 21.8 L 125.177 21.59 C 125.246 18.227 126.017 15.75 127.488 14.156 C 128.958 12.563 131.235 11.766 134.317 11.766 C 137.328 11.766 139.464 12.59 140.725 14.235 C 141.986 15.881 142.617 18.262 142.617 21.379 L 142.617 35.247 C 142.617 36.192 142.643 37.102 142.695 37.978 C 142.747 38.853 142.818 39.668 142.906 40.421 C 142.993 41.174 143.072 41.883 143.142 42.549 L 137.994 42.549 C 137.889 41.988 137.757 41.279 137.6 40.421 C 137.442 39.563 137.328 38.784 137.258 38.084 C 136.908 39.274 136.234 40.386 135.236 41.419 C 134.238 42.452 132.864 42.969 131.113 42.969 Z M 133.319 38.136 C 133.879 38.136 134.405 37.978 134.895 37.663 C 135.385 37.347 135.823 36.989 136.207 36.587 C 136.593 36.183 136.856 35.859 136.995 35.614 L 136.995 27 C 136.12 27.49 135.297 27.98 134.527 28.471 C 133.756 28.961 133.082 29.477 132.504 30.02 C 131.927 30.563 131.471 31.176 131.139 31.858 C 130.806 32.542 130.64 33.321 130.64 34.196 C 130.64 35.422 130.868 36.385 131.323 37.086 C 131.778 37.786 132.443 38.136 133.319 38.136 Z M 148.552 42.549 L 148.552 0 L 154.173 0 L 154.173 42.549 L 148.552 42.549 Z M 172.558 42.549 L 172.558 0 L 178.494 0 L 178.494 20.066 L 188.264 0 L 193.78 0 L 185.375 18.753 L 195.146 42.549 L 189.368 42.549 L 181.225 22.588 L 178.494 27.525 L 178.494 42.549 L 172.558 42.549 Z M 198.454 42.549 L 198.454 12.186 L 204.076 12.186 L 204.076 42.549 L 198.454 42.549 Z M 198.454 7.669 L 198.454 1.786 L 204.076 1.786 L 204.076 7.669 L 198.454 7.669 Z M 218.521 42.969 C 216.14 42.969 214.301 42.505 213.005 41.577 C 211.709 40.648 210.808 39.283 210.3 37.479 C 209.792 35.676 209.538 33.461 209.538 30.835 L 209.538 23.9 C 209.538 21.204 209.801 18.963 210.327 17.177 C 210.852 15.39 211.771 14.043 213.084 13.132 C 214.397 12.221 216.209 11.766 218.521 11.766 C 221.078 11.766 222.959 12.292 224.167 13.343 C 225.375 14.392 226.172 15.907 226.558 17.886 C 226.943 19.864 227.135 22.237 227.135 25.004 L 227.135 27.472 L 215.159 27.472 L 215.159 33.566 C 215.159 34.792 215.273 35.79 215.5 36.56 C 215.728 37.331 216.095 37.899 216.604 38.267 C 217.112 38.635 217.768 38.819 218.574 38.819 C 219.413 38.819 220.053 38.617 220.491 38.215 C 220.928 37.812 221.226 37.234 221.383 36.481 C 221.541 35.728 221.62 34.845 221.62 33.829 L 221.62 31.99 L 227.083 31.99 L 227.083 33.145 C 227.083 36.192 226.435 38.592 225.139 40.343 C 223.843 42.093 221.637 42.969 218.521 42.969 Z M 215.159 24.426 L 221.62 24.426 L 221.62 21.694 C 221.62 20.433 221.55 19.374 221.41 18.516 C 221.27 17.658 220.981 17.011 220.543 16.573 C 220.106 16.135 219.413 15.916 218.468 15.916 C 217.558 15.916 216.867 16.126 216.393 16.547 C 215.92 16.967 215.596 17.676 215.421 18.674 C 215.246 19.672 215.159 21.047 215.159 22.798 L 215.159 24.426 Z M 239.27 42.969 C 236.784 42.969 234.787 42.189 233.282 40.631 C 231.776 39.073 230.917 37.015 230.707 34.459 L 235.382 33.041 C 235.662 34.967 236.135 36.411 236.801 37.374 C 237.466 38.338 238.447 38.819 239.743 38.819 C 240.758 38.819 241.529 38.53 242.054 37.952 C 242.579 37.374 242.842 36.596 242.842 35.614 C 242.842 34.739 242.649 33.951 242.264 33.251 C 241.879 32.551 241.248 31.833 240.372 31.097 L 235.172 26.632 C 234.121 25.721 233.238 24.706 232.52 23.586 C 231.802 22.465 231.443 21.012 231.443 19.225 C 231.443 17.614 231.767 16.258 232.414 15.154 C 233.063 14.052 233.973 13.211 235.146 12.633 C 236.32 12.055 237.694 11.766 239.27 11.766 C 241.791 11.766 243.717 12.546 245.048 14.104 C 246.378 15.662 247.149 17.545 247.359 19.751 L 243.367 21.169 C 243.227 20.118 243.017 19.199 242.737 18.411 C 242.456 17.623 242.054 17.011 241.529 16.573 C 241.003 16.135 240.321 15.916 239.48 15.916 C 238.57 15.916 237.842 16.222 237.3 16.836 C 236.757 17.448 236.486 18.175 236.486 19.015 C 236.486 19.541 236.6 20.057 236.828 20.565 C 237.055 21.073 237.449 21.572 238.009 22.062 L 243.367 27 C 244.103 27.665 244.794 28.383 245.442 29.153 C 246.089 29.924 246.623 30.8 247.044 31.78 C 247.464 32.761 247.674 33.898 247.674 35.194 C 247.674 36.91 247.324 38.346 246.623 39.502 C 245.923 40.657 244.943 41.524 243.682 42.101 C 242.421 42.679 240.951 42.969 239.27 42.969 Z M 252.35 42.549 L 252.35 0 L 258.286 0 L 258.286 38.294 L 269.159 38.294 L 269.159 42.549 L 252.35 42.549 Z M 277.301 42.969 C 276.11 42.969 275.059 42.627 274.149 41.944 C 273.239 41.262 272.521 40.386 271.996 39.318 C 271.47 38.25 271.207 37.12 271.207 35.929 C 271.207 34.039 271.523 32.445 272.153 31.149 C 272.784 29.853 273.65 28.76 274.753 27.866 C 275.856 26.973 277.134 26.194 278.587 25.529 C 280.041 24.863 281.573 24.216 283.184 23.586 L 283.184 21.431 C 283.184 20.206 283.115 19.19 282.974 18.385 C 282.833 17.58 282.544 16.975 282.107 16.573 C 281.669 16.17 281.013 15.969 280.137 15.969 C 279.367 15.969 278.746 16.143 278.273 16.494 C 277.8 16.845 277.458 17.344 277.248 17.991 C 277.038 18.638 276.933 19.4 276.933 20.276 L 276.933 21.8 L 271.365 21.59 C 271.435 18.227 272.205 15.75 273.676 14.156 C 275.147 12.563 277.423 11.766 280.505 11.766 C 283.517 11.766 285.653 12.59 286.913 14.235 C 288.174 15.881 288.805 18.262 288.805 21.379 L 288.805 35.247 C 288.805 36.192 288.83 37.102 288.883 37.978 C 288.936 38.853 289.006 39.668 289.093 40.421 C 289.181 41.174 289.26 41.883 289.329 42.549 L 284.182 42.549 C 284.078 41.988 283.946 41.279 283.788 40.421 C 283.63 39.563 283.517 38.784 283.447 38.084 C 283.096 39.274 282.422 40.386 281.424 41.419 C 280.426 42.452 279.051 42.969 277.301 42.969 Z M 279.507 38.136 C 280.068 38.136 280.593 37.978 281.082 37.663 C 281.573 37.347 282.011 36.989 282.396 36.587 C 282.782 36.183 283.043 35.859 283.184 35.614 L 283.184 27 C 282.308 27.49 281.486 27.98 280.715 28.471 C 279.945 28.961 279.271 29.477 278.693 30.02 C 278.115 30.563 277.66 31.176 277.328 31.858 C 276.995 32.542 276.829 33.321 276.829 34.196 C 276.829 35.422 277.055 36.385 277.511 37.086 C 277.966 37.786 278.631 38.136 279.507 38.136 Z M 305.088 42.969 C 304.003 42.969 303.031 42.697 302.173 42.154 C 301.316 41.611 300.571 41.008 299.941 40.343 L 299.941 42.549 L 294.321 42.549 L 294.321 0 L 299.941 0 L 299.941 14.603 C 300.607 13.833 301.403 13.167 302.33 12.607 C 303.259 12.047 304.371 11.766 305.666 11.766 C 307.243 11.766 308.495 12.178 309.422 13.001 C 310.351 13.824 311.041 14.857 311.497 16.1 C 311.953 17.344 312.25 18.604 312.39 19.882 C 312.531 21.16 312.6 22.255 312.6 23.165 L 312.6 30.519 C 312.6 32.655 312.39 34.678 311.97 36.587 C 311.55 38.495 310.797 40.036 309.711 41.209 C 308.625 42.382 307.084 42.969 305.088 42.969 Z M 303.933 38.556 C 304.913 38.556 305.614 38.197 306.035 37.479 C 306.454 36.762 306.717 35.79 306.822 34.564 C 306.927 33.339 306.98 31.99 306.98 30.519 L 306.98 23.165 C 306.98 21.904 306.91 20.74 306.77 19.672 C 306.629 18.604 306.332 17.755 305.876 17.124 C 305.421 16.494 304.704 16.179 303.723 16.179 C 302.988 16.179 302.295 16.337 301.648 16.651 C 301 16.967 300.431 17.317 299.941 17.702 L 299.941 37.19 C 300.431 37.576 301.018 37.899 301.701 38.162 C 302.383 38.425 303.127 38.556 303.933 38.556 Z" style="stroke-width: 0.977;" fill="#8D99AE"/>
</svg>