<svg width="85" height="85" viewBox="0 0 85 85" fill="#000" xmlns="http://www.w3.org/2000/svg">
<path d="M42.5 0C40.292 0 38.5156 1.77637 38.5156 3.98438V14.6094C38.5156 16.8174 40.292 18.5938 42.5 18.5938C44.708 18.5938 46.4844 16.8174 46.4844 14.6094V3.98438C46.4844 1.77637 44.708 0 42.5 0ZM42.5 66.4062C40.292 66.4062 38.5156 68.1826 38.5156 70.3906V81.0156C38.5156 83.2236 40.292 85 42.5 85C44.708 85 46.4844 83.2236 46.4844 81.0156V70.3906C46.4844 68.1826 44.708 66.4062 42.5 66.4062ZM81.0156 46.4844C83.2236 46.4844 85 44.708 85 42.5C85 40.292 83.2236 38.5156 81.0156 38.5156H70.3906C68.1826 38.5156 66.4062 40.292 66.4062 42.5C66.4062 44.708 68.1826 46.4844 70.3906 46.4844H81.0156ZM18.5938 42.5C18.5938 40.292 16.8174 38.5156 14.6094 38.5156H3.98438C1.77637 38.5156 0 40.292 0 42.5C0 44.708 1.77637 46.4844 3.98438 46.4844H14.6094C16.8174 46.4844 18.5938 44.708 18.5938 42.5ZM72.5488 18.0791C74.1094 16.5186 74.1094 13.9951 72.5488 12.4512C70.9883 10.9072 68.4648 10.8906 66.9209 12.4512L59.4004 19.9717C57.8398 21.5322 57.8398 24.0557 59.4004 25.5996C60.9609 27.1436 63.4844 27.1602 65.0283 25.5996L72.5488 18.0791ZM25.5996 59.4004C24.0391 57.8398 21.5156 57.8398 19.9717 59.4004L12.4512 66.9209C10.8906 68.4814 10.8906 71.0049 12.4512 72.5488C14.0117 74.0928 16.5352 74.1094 18.0791 72.5488L25.5996 65.0283C27.1602 63.4678 27.1602 60.9443 25.5996 59.4004ZM66.9209 72.5488C68.4814 74.1094 71.0049 74.1094 72.5488 72.5488C74.0928 70.9883 74.1094 68.4648 72.5488 66.9209L65.0283 59.4004C63.4678 57.8398 60.9443 57.8398 59.4004 59.4004C57.8564 60.9609 57.8398 63.4844 59.4004 65.0283L66.9209 72.5488ZM25.5996 25.5996C27.1602 24.0391 27.1602 21.5156 25.5996 19.9717L18.0791 12.4512C16.5186 10.8906 13.9951 10.8906 12.4512 12.4512C10.9072 14.0117 10.8906 16.5352 12.4512 18.0791L19.9717 25.5996C21.5322 27.1602 24.0557 27.1602 25.5996 25.5996ZM42.5 61.0938C47.4314 61.0938 52.1608 59.1348 55.6478 55.6478C59.1348 52.1608 61.0938 47.4314 61.0938 42.5C61.0938 37.5686 59.1348 32.8392 55.6478 29.3522C52.1608 25.8652 47.4314 23.9062 42.5 23.9062C37.5686 23.9062 32.8392 25.8652 29.3522 29.3522C25.8652 32.8392 23.9062 37.5686 23.9062 42.5C23.9062 47.4314 25.8652 52.1608 29.3522 55.6478C32.8392 59.1348 37.5686 61.0938 42.5 61.0938Z" fill="#000"/>
</svg>
